<?xml version="1.0" standalone="no"?>
<!DOCTYPE svg PUBLIC "-//W3C//DTD SVG 20010904//EN"
 "http://www.w3.org/TR/2001/REC-SVG-20010904/DTD/svg10.dtd">
<svg version="1.0" xmlns="http://www.w3.org/2000/svg"
 width="500.000000pt" height="500.000000pt" viewBox="0 0 500.000000 500.000000"
 preserveAspectRatio="xMidYMid meet">
<metadata>
Created by potrace 1.14, written by Peter Selinger 2001-2017
</metadata>
<g transform="translate(0.000000,500.000000) scale(0.100000,-0.100000)"
fill="#000000" stroke="none">
<path d="M3955 3704 c-442 -64 -733 -259 -897 -601 -146 -305 -166 -781 -48
-1142 124 -381 398 -606 810 -667 138 -20 432 -15 600 11 115 18 314 64 400
93 l55 19 3 611 2 612 -470 0 -470 0 0 -210 0 -210 220 0 220 0 0 -244 0 -244
-72 -13 c-40 -8 -140 -14 -223 -14 -128 0 -161 3 -221 22 -240 76 -372 285
-405 645 -12 128 -1 281 26 391 9 34 37 105 62 157 88 182 256 314 453 356 57
12 109 15 215 11 158 -6 258 -27 398 -83 49 -20 93 -32 97 -27 15 17 161 383
156 392 -9 14 -241 88 -351 111 -81 18 -141 23 -315 25 -118 2 -228 1 -245 -1z"/>
<path d="M120 2495 l0 -1185 226 0 226 0 -5 723 c-3 397 -10 806 -17 909 -6
103 -10 197 -8 210 2 13 131 -395 289 -907 l285 -930 231 -3 232 -2 75 227
c41 126 177 539 301 918 125 380 232 695 237 700 7 7 8 -5 4 -35 -4 -25 -9
-442 -12 -928 l-6 -882 233 2 234 3 3 1183 2 1182 -344 0 -345 0 -166 -507
c-92 -280 -225 -687 -297 -906 -72 -219 -132 -396 -135 -394 -2 2 -129 409
-282 903 l-278 899 -342 3 -341 2 0 -1185z"/>
</g>
</svg>
