<?xml version="1.0" encoding="utf-8"?>
<!-- Generator: Adobe Illustrator 27.0.0, SVG Export Plug-In . SVG Version: 6.00 Build 0)  -->
<svg version="1.1" id="Layer_1" xmlns="http://www.w3.org/2000/svg" xmlns:xlink="http://www.w3.org/1999/xlink" x="0px" y="0px"
	 viewBox="0 0 106.4 82.1" style="enable-background:new 0 0 106.4 82.1;" xml:space="preserve">
<style type="text/css">
	.st0{opacity:0.3;fill:#121214;enable-background:new    ;}
	.st1{fill:#E6DAB0;}
	.st2{fill:#BDAF83;}
	.st3{fill:#F0C6B4;}
	.st4{fill:#121214;}
	.st5{fill:#303033;}
	.st6{fill:#A7A9AC;}
	.st7{fill:#FFFFFF;}
	.st8{fill:#C7A496;}
	.st9{fill:#BCBEC0;}
	.st10{fill:#FF8400;}
	.st11{fill:#BA6000;}
	.st12{fill:#16A89F;}
	.st13{fill:#0A8074;}
	.st14{fill:#944F00;}
	.st15{fill:#939598;}
	.st16{fill:#3C2415;}
	.st17{fill:#754C29;}
	.st18{opacity:0.2;fill:#24D2C1;enable-background:new    ;}
	.st19{opacity:0.6;fill:#0A8074;enable-background:new    ;}
	.st20{opacity:0.6;fill:#16A89F;enable-background:new    ;}
	.st21{opacity:0.3;fill:#24D2C1;enable-background:new    ;}
	.st22{opacity:0.3;enable-background:new    ;}
	.st23{fill:#535359;}
	.st24{fill:#603913;}
	.st25{fill:#FF9D26;}
	.st26{fill:#2565C4;}
	.st27{fill:#D63A3A;}
</style>
<path class="st0" d="M46.7,31.9l18.1,10.4c0.7-0.8,1.8-1.7,3.1-2.4c0.4-0.2,0.8-0.4,1.1-0.6l-9.8-5.6c-1.1-0.7-1.1-1.7,0-2.4
	l15.5-8.9c1.1-0.7,3-0.7,4.1,0l26.7,15.4c1.1,0.7,1.1,1.7,0,2.4l-15.5,9c-1.1,0.7-3,0.7-4.1,0l-8.5-4.9c-0.3,0.2-0.7,0.4-1.1,0.7
	c-1.3,0.8-2.8,1.4-4.2,1.8l17.7,10.2L62.6,72.6L19.4,47.6L46.7,31.9L46.7,31.9z"/>
<g>
	<g>
		<path class="st1" d="M70.5,3.6l3.1-1.8l0,0c1.5-0.9,3.6-0.8,5.9,0.5l18.7,10.8c4.6,2.6,8.3,5.4,8.3,10.6l0,7.5
			c0,2.5-0.8,4.3-2.2,5.2l-4.1,2.3l-0.8-2.2c-0.4-0.2-0.7-0.3-1.1-0.6l-16.7-9.6c-4.5-2.6-8.2-9-8.2-14.3l0-5.3c0-0.5,0,0.4,0.1-0.1
			l-0.5,0.1C72.9,6.7,70.5,3.6,70.5,3.6z"/>
		<path class="st2" d="M69.4,6.7c0-5.3,3.7-3.7,8.3-1.1l16.7,9.6c4.6,2.6,8.3,5.4,8.3,10.6l0,2.7v4.9c0,5.2-3.7,7.4-8.2,4.8
			l-16.7-9.6c-4.5-2.6-8.2-9-8.2-14.3C69.4,14.3,69.4,6.7,69.4,6.7z"/>
	</g>
	<path class="st1" d="M61.2,29.7l-3.6-14.3L70,8.3c0,0,0,0,0,0l0,0v0c0.3-0.2,0.8-0.1,1.2,0.1c1,0.6,1.8,1.9,1.8,3.1v1.1
		c0,3,2.1,6.6,4.7,8.1C77.7,20.7,61.2,29.7,61.2,29.7z"/>
	<path class="st1" d="M77.7,20.7l15,8.7c0,0,3.4,6.2-8,15c-1.6,0.6-23.4-14.6-23.4-14.6S77.7,20.7,77.7,20.7z"/>
	<path class="st1" d="M88.1,32.1l11.4-6.6c0.3-0.2,0.8-0.2,1.3,0.1c1,0.6,1.8,1.9,1.8,3.1v4.9c0,2.6-0.9,4.4-2.4,5.3v0l0,0
		c0,0,0,0-0.1,0L87.8,46c0,0-7-4.1-7.4-4.3C80.4,41.7,88.1,32.1,88.1,32.1z"/>
	<path class="st2" d="M65.3,35.8l16.7,9.6c4.5,2.6,8.2,0.5,8.2-4.8v-4.9c0-1.1-0.8-2.5-1.8-3.1c-1-0.6-1.8-0.1-1.8,1v1.1
		c0,3-2.1,4.2-4.7,2.7l-16.7-9.6c-2.6-1.5-4.7-5.1-4.7-8.1v-1.1c0-1.1-0.8-2.5-1.8-3.1c-1-0.6-1.8-0.1-1.8,1v4.9
		C57,26.8,60.7,33.2,65.3,35.8z"/>
</g>
<g>
	<path d="M69.2,40.1c-0.3,0.6-2.4,2.1-2.5,2.4c-0.2,0.2-0.6,0.9-0.1,1.3c0.5,0.4,1.4,0.2,2.4-0.3c1-0.5,1.6-1.4,1.6-1.4
		s1.2-0.5,1.6-0.9c0.4-0.4-0.1-1.4-0.1-1.4S69.5,39.5,69.2,40.1z"/>
	<path d="M72.3,42c-0.3,0.6-2.6,2.3-2.8,2.6c-0.2,0.2-0.3,0.7,0.2,1c0.5,0.4,1.6,0.3,2.6-0.3c1-0.5,1.8-1.5,1.8-1.5s0.8-0.2,1.1-0.6
		c0.4-0.4,0-1.6,0-1.6S72.6,41.4,72.3,42z"/>
	<path class="st3" d="M72.5,41.6c-0.2,0.4-1.7,1.8-1.4,2.1c0.8,0.8,2.9-1.6,2.9-1.6S72.8,41.2,72.5,41.6z"/>
	<path class="st3" d="M69.4,39.8c-0.2,0.4-1.7,1.8-1.4,2.1c0.8,0.8,2.9-1.6,2.9-1.6S69.6,39.4,69.4,39.8z"/>
	<path class="st4" d="M77.7,21.4c-4.6,2.6-8,7.4-8.7,8.1c-0.8,0.7-0.8,2.3-0.4,3c0.3,0.7,0.9,5.5,0.5,7.7c1.6,1.7,3.6,0.1,3.8-0.5
		c-0.3-5.5-1-7.7-1-7.7s9.1-4.3,10.4-6.2c1.4-1.9,1-4,1-4S77.7,21.4,77.7,21.4z"/>
	<path class="st5" d="M77.7,21.4c0,0,1.1,2.3,1.8,3c-3.5,2.1-6.9,5.7-7.7,6.4c-0.8,0.7-0.8,2.3-0.4,3c0.3,0.7,1.2,6.3,0.8,7.9
		c1.6,1.7,3.6,0,3.9-0.6c-0.3-5.5-1.5-8.2-1.5-8.2s9.2-4,10.5-5.9c1.4-1.9,1-4,1-4L77.7,21.4L77.7,21.4z"/>
	<path class="st6" d="M75.5,13.2c0,0-0.2,0.8,1.1,1.5c1.3,0.7,1.9-1,1.9-1c0,0-2-1.2-2-1.2L75.5,13.2z"/>
	<path class="st3" d="M76,12.9c-0.5,0.7-1.4,2.2-2,3.2c-0.7,0.6-1.7,1.7-2.5,2.4c0,0.6,1.6,0.8,1.6,0.8s2.1-1.2,2.7-2
		c0.4-0.5,2.2-3,2.3-3.6C78.2,13,76.6,12.2,76,12.9z"/>
	<path class="st7" d="M80,8.1C78.6,7.3,77.7,9,77.7,9s-2,3.8-2.2,4.2c0.5,0,2.2,0.8,2.7,1.5c0.4-0.8,2.4-4.5,2.4-4.5
		S81.2,8.8,80,8.1z"/>
	<path class="st8" d="M84.2,7.1C84.1,8,84.4,9,84.4,9l0.2,1.3l-0.9,0.9l-2.4,2.2l-1.9-0.6v-2.1l1.1-2.5l1.3-1.9
		C81.8,6.3,83.9,6.8,84.2,7.1z"/>
	<path class="st9" d="M76.9,13.8c-0.1-1.3,1.6-2.6,1.9-3.2l-0.4,2.5L76.9,13.8z"/>
	<path class="st7" d="M81.1,8.9c0,0-1.5,2.5-0.7,3.7c2.1-0.6,3.2-2.1,3.6-2.5C84.4,9.7,84.4,9,84.4,9s1.2,1.5,2.6,2.8
		c0.1,0.5-1.3,6-1.2,7.8c0.1,1.8,0.3,3.1,0.3,3.1s0.4,1.5-2.2,1.8c-2.6,0.4-6.2-2.2-6.3-3.5c-0.2-4.4-0.9-4.7-1-6.1
		c0-1.4,1.4-3,1.8-3.7c0.4-0.7,0.7-1.9,1.2-2.2C80.1,8.7,81.1,8.9,81.1,8.9z"/>
	<path class="st9" d="M84.8,18.9c0,0-0.8-0.1-0.9-0.4c-0.1-0.3,0.8-4.8,0.8-4.8L84.8,18.9z"/>
	<g>
		<path class="st6" d="M78,18.5L77.8,19l0.6-0.8c0,0-0.1-0.1-0.2,0.1C78.2,18.4,78,18.5,78,18.5z"/>
		<path class="st10" d="M78.1,18.3c0,0-0.1,0.1,0,0.2c0.1,0.1,0.2,0,0.2,0l0.8-1c0.1-0.1,0.1-0.2,0-0.2l0,0c-0.1,0-0.2,0-0.2,0
			L78.1,18.3z"/>
		<path class="st11" d="M78.4,18.2c0.1,0,0.1,0,0.2,0l0,0C78.5,18.2,78.5,18.3,78.4,18.2c-0.1,0-0.1-0.1-0.1-0.1l0,0
			C78.3,18.1,78.3,18.1,78.4,18.2z"/>
		<path class="st12" d="M79.3,16.7c0.1-0.1,0.2-0.1,0.3-0.1l0,0c0.1,0.1,0.1,0.2,0,0.3l-1,1.3c0,0,0,0-0.1,0c0,0-0.1,0-0.2,0
			c-0.1,0-0.1-0.1-0.1-0.2c0,0,0-0.1,0-0.1S79.3,16.7,79.3,16.7z"/>
		<path class="st13" d="M79.2,17.1c0.1,0.1,0.2,0,0.2,0l0,0C79.4,17.2,79.3,17.3,79.2,17.1c-0.1-0.1-0.1-0.2-0.1-0.2l0,0
			C79.1,17,79.1,17.1,79.2,17.1z"/>
		<path class="st12" d="M80.3,15.3c0.1-0.1,0.2-0.1,0.3-0.1l0,0c0.1,0.1,0.1,0.2,0,0.3l-1.2,1.6c0,0,0,0-0.1,0c-0.1,0-0.1,0-0.2,0
			c-0.1-0.1-0.1-0.1-0.1-0.2c0-0.1,0-0.1,0-0.1S80.3,15.3,80.3,15.3z"/>
		<path class="st10" d="M80.4,15.9c0,0,0.1,0.1,0,0.2L79.7,17c-0.1,0.1-0.4,0.4-0.4,0.4l1-1.3c0,0,0-0.1-0.1,0l0,0L80.4,15.9
			L80.4,15.9L80.4,15.9z"/>
	</g>
	<path class="st3" d="M78.3,16c0.1-0.2,1.1-0.4,1.5-0.1c0.6,0.4,0.8,1.7,0.8,1.7l4,2l0-1.1l0.4-0.8l2,0.5v0.5c0,0,0.1,2.5-0.1,2.9
		c-0.2,0.4-0.7,0.6-1.7,0.5c-1.1-0.1-5.1-3.1-5.1-3.1s-0.8-0.1-1.1-0.7c-0.3-0.1-0.5-0.2-0.6-0.6C78.1,17.4,78.2,16.2,78.3,16z"/>
	<path class="st3" d="M79.6,3.4C79.1,4.5,79,5.1,79,5.3c0,0.2,0.2,0.3,0.2,0.5C79,7.5,79.3,9,79.4,9.2c0.1,0.2,0.6,0.6,0.9,0.6
		c1.9-0.2,2.7-1.2,3-1.4c0.2-0.2,0.3-0.5,0.4-0.9c0.4-0.2,0.5-0.3,0.5-0.3l0.5-0.4l0.2-1.5l-1.8-2C83.1,3.2,79.8,3.3,79.6,3.4z"/>
	<path class="st14" d="M85.4,1.9c0,0,1.5-0.8,3,0.6c-1.4-0.6-3,0.2-3,0.2S85.4,1.9,85.4,1.9z"/>
	<path class="st14" d="M85.1,1.6c0,0,1-1.3,3-0.7c-1.5,0-2.6,1.4-2.6,1.4S85.1,1.6,85.1,1.6z"/>
	<path class="st14" d="M84.8,1.9c0,0-0.5-1.2,1.1-1.9c-0.8,0.7-0.3,2.1-0.3,2.1L84.8,1.9z"/>
	<path class="st10" d="M85.8,2.3c0,0.5-0.4,0.9-0.9,0.9c-0.5,0-0.9-0.4-0.9-0.9c0-0.5,0.4-0.9,0.9-0.9C85.4,1.4,85.8,1.8,85.8,2.3z"
		/>
	<path class="st14" d="M79.6,3.4c0,0,0.3,0.7,0.9,1C81,4.7,82,4.5,82.3,4.8c0.3,0.3,0,0.7,0.1,1.1c0.1,0.3,0.7,0.8,0.8,1.1
		c0.4-0.4,1.2-1.3,1.3-1c0.1,0.3-0.3,1.1-0.3,1.1s1.3,0.1,1.7-1.3C86.6,3.2,85,2.1,85,2.1S83.6,1,82.1,1.3
		C80.4,1.7,79.6,3.4,79.6,3.4z"/>
	<path class="st7" d="M86.5,11.7c-1.6-0.2-1.8,1.8-1.8,1.8s-0.3,4.2-0.4,4.7c-0.1,0.9,3.2,1,3.2,0.1c0-0.8,0.2-4.9,0.2-4.9
		S87.8,11.8,86.5,11.7z"/>
	<g>
		<path class="st7" d="M76.2,19c0,0-2.5-1.4-3-1.7c-0.5-0.3-0.9,0.1-0.9,0.1l3.1,2.1C75.4,19.4,76.2,19,76.2,19z"/>
		<path class="st15" d="M77.8,22.3l-2.5-1.5l-0.2-2c0,0,0.9-0.2,1.3,0.4c0.4,0.6,0.2,1.8,0.5,2.2C77.2,21.9,77.8,22.3,77.8,22.3z"/>
		<path class="st9" d="M77.8,22.3c0,0-0.8-0.4-1-0.9c-0.1-0.2-0.1-0.5-0.1-0.8c0-0.4-0.1-0.8-0.2-1.2c-0.3-0.7-1.1-0.6-1.1-0.6
			l0-0.1c0,0,0.8-0.1,1.2,0.6c0.2,0.4,0.2,0.8,0.2,1.2c0,0.3,0,0.6,0.1,0.8C77.1,21.9,77.9,22.3,77.8,22.3
			C77.9,22.3,77.8,22.3,77.8,22.3z"/>
		<g>
			<polygon class="st16" points="77.6,23 77.4,23.2 72,17 72.1,16.9 75.4,18.7 			"/>
			<polygon class="st17" points="77.4,23.2 74.1,21.3 72,17 75.2,18.9 			"/>
		</g>
		<g>
			<polygon class="st15" points="74.2,18.1 74.1,18.2 73.1,17.3 73.2,17.2 73.9,17.6 			"/>
			<polygon class="st9" points="74.1,18.2 73.3,17.8 73.1,17.3 73.8,17.7 			"/>
		</g>
	</g>
	<path class="st3" d="M75,20.2c-0.3-1-1.5-0.8-1.5-0.8L73,19l-0.5-0.9c0,0-1,0-1.1,0.5c-0.3,1,1,2.1,1.8,2.3
		C73.9,21.1,75.1,20.6,75,20.2z"/>
</g>
<g>
	<g>
		<path class="st15" d="M61.5,55.4c0.1,0,0.1-0.1,0.2-0.1c0.6-0.3,1.5-0.3,2.1,0c0.1,0,0.1,0.1,0.2,0.1l0.3,0l0,14.4v0
			c0,0.2-0.1,0.4-0.4,0.6c-0.6,0.3-1.5,0.3-2.1,0c-0.3-0.2-0.4-0.4-0.4-0.6h0l0-14.4L61.5,55.4C61.5,55.3,61.5,55.4,61.5,55.4z"/>
		<path class="st9" d="M61.7,54.7c0.6-0.3,1.5-0.3,2.1,0c0.6,0.3,0.6,0.9,0,1.2c-0.6,0.3-1.5,0.3-2.1,0
			C61.1,55.6,61.1,55.1,61.7,54.7z"/>
	</g>
	<g>
		<path class="st15" d="M84.2,42.2c0.1,0,0.1-0.1,0.2-0.1c0.6-0.3,1.5-0.3,2.1,0c0.1,0,0.1,0.1,0.2,0.1l0.3,0l0,14.4l0,0
			c0,0.2-0.1,0.4-0.4,0.6c-0.6,0.3-1.5,0.3-2.1,0c-0.3-0.2-0.4-0.4-0.4-0.6h0l0-14.4L84.2,42.2C84.2,42.2,84.2,42.2,84.2,42.2z"/>
		<path class="st9" d="M84.4,41.6c0.6-0.3,1.5-0.3,2.1,0c0.6,0.3,0.6,0.9,0,1.2c-0.6,0.3-1.5,0.3-2.1,0
			C83.8,42.5,83.8,41.9,84.4,41.6z"/>
	</g>
	<g>
		<path class="st15" d="M22.6,32.9c0.1,0,0.1-0.1,0.2-0.1c0.6-0.3,1.5-0.3,2.1,0c0.1,0,0.1,0.1,0.2,0.1l0.3,0l0,14.4l0,0
			c0,0.2-0.1,0.4-0.4,0.6c-0.6,0.3-1.5,0.3-2.1,0c-0.3-0.2-0.4-0.4-0.4-0.6l0,0l0-14.4L22.6,32.9C22.6,32.8,22.6,32.9,22.6,32.9z"/>
		<path class="st9" d="M22.8,32.3c0.6-0.3,1.5-0.3,2.1,0c0.6,0.3,0.6,0.9,0,1.2c-0.6,0.3-1.5,0.3-2.1,0
			C22.2,33.1,22.2,32.6,22.8,32.3z"/>
	</g>
	<g>
		<path class="st15" d="M45.3,19.8c0,0,0.1-0.1,0.2-0.1c0.6-0.3,1.5-0.3,2.1,0c0.1,0,0.1,0.1,0.2,0.1l0.3,0l0,14.4l0,0
			c0,0.2-0.1,0.4-0.4,0.6c-0.6,0.3-1.5,0.3-2.1,0c-0.3-0.2-0.4-0.4-0.4-0.6l0,0l0-14.4L45.3,19.8C45.3,19.7,45.3,19.8,45.3,19.8z"/>
		<path class="st9" d="M45.5,19.1c0.6-0.3,1.5-0.3,2.1,0c0.6,0.3,0.6,0.9,0,1.2c-0.6,0.3-1.5,0.3-2.1,0C44.9,20,44.9,19.5,45.5,19.1
			z"/>
	</g>
	<g>
		<polygon class="st18" points="62.6,58.4 89.9,42.6 46.7,17.7 19.4,33.4 		"/>
		<polygon class="st19" points="46.7,17.7 89.9,42.6 89.9,41.5 46.7,16.5 		"/>
		<polygon class="st20" points="19.4,33.4 46.7,17.7 46.7,16.5 19.4,32.3 		"/>
		<polygon class="st21" points="62.6,57.2 89.9,41.5 46.7,16.5 19.4,32.3 		"/>
		<polygon class="st20" points="62.6,58.4 89.9,42.6 89.9,41.5 62.6,57.2 		"/>
		<polygon class="st19" points="19.4,33.4 62.6,58.4 62.6,57.2 19.4,32.3 		"/>
	</g>
</g>
<g>
	<path class="st22" d="M2.6,63.8l15.5-8.9c1.1-0.7,3-0.7,4.1,0l26.7,15.4c1.1,0.7,1.1,1.7,0,2.4l-15.5,8.9c-1.1,0.7-3,0.7-4.1,0
		L2.6,66.2C1.4,65.6,1.4,64.5,2.6,63.8z"/>
	<path class="st1" d="M8.1,60.4L4.4,46.1L16.8,39c0,0,0,0,0,0l0,0v0c0.3-0.2,0.8-0.1,1.2,0.1c1,0.6,1.8,1.9,1.8,3.1v1.1
		c0,3,2.1,6.6,4.7,8.1C24.5,51.4,8.1,60.4,8.1,60.4z"/>
	<path class="st1" d="M12.1,66.5l16.7,9.6c4.5,2.6,8.2,0.5,8.2-4.8v-4.9c0-1.1-0.8-2.5-1.8-3.1c-1-0.6-1.8-0.1-1.8,1v1.1
		c0,3-2.1,4.2-4.7,2.7l-16.7-9.6c-2.6-1.5-4.7-5.1-4.7-8.1v-1.1c0-1.1-0.8-2.5-1.8-3.1c-1-0.6-1.8-0.1-1.8,1v4.9
		C3.8,57.5,7.5,63.9,12.1,66.5z"/>
	<path class="st4" d="M39.7,61.3c1-0.3,1.9-0.8,2.3-0.8s0.8,0.2,0.9,0.9c0.1,0.6,0.2,1.4-0.6,2c-0.9,0.7-2.4,1.4-2.4,1.4
		s-0.6,0.7-1.2,0.9c-0.5,0.2-1.4-0.1-1.5-0.3c-0.1-0.2-0.3-0.9-0.4-1.7C36.7,62.6,38.7,61.6,39.7,61.3z"/>
	<path class="st23" d="M37.8,52.9c0.6,0.2,0.8,2.7,1.3,4.8c0.4,2,1,3.7,1,3.7s0.7,1.4-0.8,2.2c-1.8,1.1-2.6-0.1-2.6-0.1
		s-1.4-3.4-1.7-6.1v-2.7L37.8,52.9z"/>
	<path class="st5" d="M34.9,57.4c0,0,1.3-0.8,2.4-1.7C37.3,57,34.9,57.4,34.9,57.4z"/>
	<path class="st1" d="M24.5,51.4l15,8.7c0,0,3.4,6.2-8,15C29.9,75.6,8.1,60.4,8.1,60.4S24.5,51.4,24.5,51.4z"/>
	<path class="st1" d="M34.9,62.7l11.4-6.6c0.3-0.2,0.8-0.2,1.3,0.1c1,0.6,1.8,1.9,1.8,3.1v4.9c0,2.6-0.9,4.4-2.4,5.3l0,0l0,0
		c0,0,0,0-0.1,0l-12.3,7.1c0,0-7-4.1-7.4-4.3C27.2,72.4,34.9,62.7,34.9,62.7z"/>
	<g>
		<path class="st3" d="M21.4,39c0,0.8-0.4,1.5-0.4,1.5l-0.1,1.1l2.1,1h2L24.9,42c0,0,0.2-1.1,0.5-1.6c0.3-0.5,0.1-1.4,0.1-1.4
			L23,38.1C23,38.1,21.7,38.7,21.4,39z"/>
		<path class="st3" d="M29.5,41c0,0,1-1.5,1.4-1.7c0.4-0.2,0.9-0.3,1.1-0.3c0.2,0,0.3,0.2,0.3,0.2s1.1-0.3,1.3,0.1
			c0.7,1.1-0.4,2.5-0.8,2.7c-0.4,0.3-2,0.7-2,0.7L30,42C30,42,29.5,41,29.5,41z"/>
		<path class="st7" d="M28.5,41.7c0,0,0.6-0.4,1-0.6c1.3,0.4,1.4,1.7,1.3,1.9c-0.5,0.3-1,0.6-1,0.6L28.5,41.7z"/>
		<path class="st23" d="M25.1,43.4c0,0,2.3-1.3,3.4-2c0.8-0.6,2.5,1.6,1.4,2.4c-0.6,0.4-2.9,2.4-2.9,2.4S25.1,43.4,25.1,43.4z"/>
		<path class="st23" d="M17.3,45c0,0-1.5-2.5,0.1-3.8c1.6-1.3,3,0,3,0L17.3,45z"/>
		<path class="st4" d="M33.4,62.9c0,0,1.7,0.3,2.1,0.3c0.4,0,0.8,0.6,0.3,1c0,0-0.6,0.4-1.4,0.6c-0.7,0.2-1.8,0.3-1.8,0.3
			s-1.4,1-2,1c-0.6,0-1.1-0.4-1.1-0.6c-0.1-1.4,0.5-2.4,0.5-2.4S33.4,62.9,33.4,62.9z"/>
		<path class="st23" d="M30.3,52.2c0.3-0.5,3.4-0.9,3.8-0.4c0.4,0.5-0.6,7.1-0.4,11.1c0.1,0.9-3.9,2.5-3.9,0.2
			C29.9,60.8,29.4,55.2,30.3,52.2z"/>
		<path class="st23" d="M34.9,57.4c-0.8,0.5-5.3,3.2-8.2,4.2c-2.8,1-6.5-2.1-6.8-2.7c-0.4-0.6-0.5-1.6-0.5-1.6l2.5-3.1l6.4,0
			c0,0,8.5-1.6,9.6-1.2L34.9,57.4z"/>
		<path class="st5" d="M19.6,58.3c-0.1-0.3,0.5-1.8,0.5-1.8s1-0.3,2.3-0.7c1-0.3-2.6,3.7,3.5,4.7c6.3-1.6,1.1-5.9,1.6-6
			c0.7-0.1,1.6-0.4,1.6-0.3c-0.1,2,1,2.4,1,3.6c0,1.2-2.1,3.2-4.4,3.4C23.1,61.3,20,59,19.6,58.3z"/>
		<path class="st23" d="M25.6,43.3l2.1,2c0,0,0.6,7.9,0.6,8.7c0.1,1.6,1.8,3.1,1.5,4.1c-0.3,1-2.4,3.1-4.6,2.9
			c-1-0.1-2.3-0.6-3.5-1.3c-0.2-0.1-0.4-1.5-0.3-2.9c-0.3,0.7-0.6,1.9-0.6,2.3c-1.3-0.8-2.2-1.6-2.1-2c0.1-0.9,0.5-2.4,0.3-5.3
			c-0.2-3-2.8-7.1-1-9.6c1.1-1.5,2.5-0.9,2.5-0.9l1.1,1C21.5,42.1,25.6,43.3,25.6,43.3z"/>
		<path class="st3" d="M26.2,34.1c1,0.6,1.2,2.6,1.1,2.8c0,0.1-0.2,0.3-0.2,0.3s0.1,2.4-0.9,3.3c-0.2,0.1-1.5,0-1.9-1
			c-0.3-0.9-0.4-3.3-0.4-3.3l0.7-2C24.5,34.1,26.1,34,26.2,34.1z"/>
		<path class="st24" d="M26.2,34.1c-0.1,0.4-1.3,0.5-0.8,1.3c0.4,0.6,1,0.4,1.1,0.7c0.3,1,0,2,0,2s-0.4,0.4-0.6,0.3
			c-0.1-0.1,0-0.6-0.3-0.5c-0.6,0.3-0.7,1.6-1.5,1.8c-0.8,0.3-2.5-0.3-2.9-0.8c-0.4-0.5-1.1-2.3-0.1-4
			C23.2,31.8,26.3,33.4,26.2,34.1z"/>
		<path class="st7" d="M21,40.5c0,0,0.4,1.8,4.4,1.4c-0.1,0.5,0.2,1.4,0.2,1.4c-5.5,0.7-5.2-2.1-5.2-2.1S21,40.5,21,40.5z"/>
		<path class="st3" d="M35.4,47.8c0,0,0.7-1.1,1.1-1.4c0.4-0.3,1.4-1,1.6-0.7c0.1,0.3-0.8,1-0.6,1.2c0.1,0.2,1.4,0.1,1.4,0.1
			s1-1.1,1.4-0.8c0.4,0.3-1.3,2.4-1.6,2.6c-0.3,0.2-2.2,0.6-2.2,0.6l-0.6-0.6C35.8,48.8,35.4,47.8,35.4,47.8z"/>
		<path class="st7" d="M34.5,48.4c0,0,0.6-0.5,0.8-0.7c1.4,0.3,1.4,1.5,1.3,1.7c-0.5,0.2-0.9,0.5-0.9,0.5L34.5,48.4z"/>
		<path class="st5" d="M28.8,55.2c-0.9-0.1-2.5-3-3.7-6.9c1.4,2.4,4.2,6.1,4.2,6.1s4.9-2.3,4.9-2.2C33.4,53.4,30.3,55.3,28.8,55.2z"
			/>
		<path class="st23" d="M25.9,45.1c-2,1-0.6,3.8-0.6,3.8s2.7,5.7,3.5,5.8c2.5,0.5,6-3.3,7-4c1-0.7,0.1-2.8-1.2-2.5
			c-1,1-4.2,2.8-4.2,2.8l-1.4-3.5C28.9,47.3,27.9,44.1,25.9,45.1z"/>
	</g>
	<g>
		<path class="st1" d="M1.1,43.7l3.1-1.8l0,0c1.5-0.9,3.6-0.8,5.9,0.5l18.7,10.8c4.6,2.6,8.3,5.4,8.3,10.6l0,7.5
			c0,2.5-0.8,4.3-2.2,5.2l-4.1,2.3l-0.8-2.2c-0.4-0.2-0.7-0.3-1.1-0.6l-16.7-9.6c-4.5-2.6-8.2-9-8.2-14.3l0-5.3c0-0.5,0,0.4,0.1-0.1
			l-0.5,0.1C3.5,46.8,1.1,43.7,1.1,43.7z"/>
		<path class="st2" d="M0,46.9c0-5.3,3.7-3.7,8.3-1.1l16.7,9.6c4.6,2.6,8.3,5.4,8.3,10.6l0,2.7v4.9c0,5.2-3.7,7.4-8.2,4.8L8.3,68.7
			C3.7,66.1,0,59.7,0,54.4L0,46.9z"/>
	</g>
</g>
<g>
	<g>
		<path class="st4" d="M60.9,27.3c-0.1-0.1-0.2-0.1-0.3,0l-5.4,3.1v-0.2h-0.4v0.5c0,0,0,0.1,0.1,0.1l9.3,5.3c0.1,0.1,0.2,0.1,0.3,0
			l5.7-3.3c0,0,0.1-0.1,0.1-0.1v-0.5l-0.4,0.2C69.8,32.4,60.9,27.3,60.9,27.3z"/>
		<path class="st25" d="M60.9,26.8c-0.1-0.1-0.2-0.1-0.3,0l-5.7,3.3c-0.1,0.1-0.1,0.1,0,0.2l9.3,5.3c0.1,0.1,0.2,0.1,0.3,0l5.7-3.3
			c0.1-0.1,0.1-0.1,0-0.2C70.2,32.1,60.9,26.8,60.9,26.8z"/>
		<polygon class="st4" points="58.6,28.5 59,28.8 59.5,28.5 59,28.3 		"/>
		<polygon class="st4" points="59.4,29 59.8,29.2 60.3,29 59.8,28.7 		"/>
		<polygon class="st4" points="58,28.9 58.4,29.1 58.8,28.9 58.4,28.6 		"/>
		<polygon class="st4" points="57.4,29.2 58.5,29.8 59,29.6 57.9,28.9 		"/>
		<polygon class="st4" points="56.9,29.5 58,30.1 58.4,29.9 57.3,29.2 		"/>
		<polygon class="st4" points="56.4,29.8 57.4,30.4 57.9,30.2 56.8,29.6 		"/>
		<polygon class="st4" points="60,29.3 60.4,29.6 60.8,29.3 60.4,29.1 		"/>
		<polygon class="st4" points="60.5,29.6 60.9,29.9 61.4,29.6 60.9,29.4 		"/>
		<polygon class="st4" points="61,29.9 61.5,30.2 61.9,29.9 61.5,29.7 		"/>
		<polygon class="st4" points="58.6,29.3 59.1,29.5 59.5,29.3 59.1,29 		"/>
		<polygon class="st4" points="59.2,29.6 59.6,29.8 60,29.6 59.6,29.3 		"/>
		<polygon class="st4" points="59.7,29.9 60.1,30.1 60.6,29.9 60.1,29.6 		"/>
		<polygon class="st4" points="60.3,30.2 60.7,30.4 61.1,30.2 60.7,29.9 		"/>
		<polygon class="st4" points="60.8,30.5 61.2,30.8 61.7,30.5 61.2,30.3 		"/>
		<polygon class="st4" points="61.3,30.8 61.8,31.1 62.2,30.8 61.8,30.6 		"/>
		<polygon class="st4" points="61.9,31.1 62.3,31.4 62.8,31.1 62.3,30.9 		"/>
		<polygon class="st4" points="62.4,31.5 62.9,31.7 63.3,31.5 62.9,31.2 		"/>
		<polygon class="st4" points="63,31.8 63.4,32 63.8,31.8 63.4,31.5 		"/>
		<polygon class="st4" points="63.5,32.1 63.9,32.3 64.4,32.1 63.9,31.8 		"/>
		<polygon class="st4" points="64.1,32.4 64.5,32.6 64.9,32.4 64.5,32.1 		"/>
		<polygon class="st4" points="64.6,32.7 65,33 65.5,32.7 65,32.5 		"/>
		<polygon class="st4" points="65.1,33 65.6,33.3 66,33 65.6,32.8 		"/>
		<polygon class="st4" points="65.7,33.3 66.1,33.6 66.6,33.3 66.1,33.1 		"/>
		<polygon class="st4" points="58.1,30.2 58.5,30.4 59,30.2 58.5,29.9 		"/>
		<polygon class="st4" points="58.6,30.5 59.1,30.7 59.5,30.5 59.1,30.2 		"/>
		<polygon class="st4" points="59.2,30.8 59.6,31.1 60.1,30.8 59.6,30.6 		"/>
		<polygon class="st4" points="59.7,31.1 60.2,31.4 60.6,31.1 60.2,30.9 		"/>
		<polygon class="st4" points="60.3,31.4 60.7,31.7 61.1,31.4 60.7,31.2 		"/>
		<polygon class="st4" points="60.8,31.8 61.3,32 61.7,31.8 61.3,31.5 		"/>
		<polygon class="st4" points="61.4,32.1 61.8,32.3 62.2,32.1 61.8,31.8 		"/>
		<polygon class="st4" points="61.9,32.4 62.3,32.6 62.8,32.4 62.3,32.1 		"/>
		<polygon class="st4" points="62.4,32.7 62.9,32.9 63.3,32.7 62.9,32.4 		"/>
		<polygon class="st4" points="63,33 63.4,33.3 63.9,33 63.4,32.8 		"/>
		<polygon class="st4" points="63.5,33.3 64,33.6 64.4,33.3 64,33.1 		"/>
		<polygon class="st4" points="64.1,33.6 64.5,33.9 64.9,33.6 64.5,33.4 		"/>
		<polygon class="st4" points="64.6,33.9 65.1,34.2 65.5,33.9 65.1,33.7 		"/>
		<polygon class="st4" points="57.6,30.5 58,30.7 58.4,30.5 58,30.2 		"/>
		<polygon class="st4" points="58.1,30.8 58.5,31.1 59,30.8 58.5,30.6 		"/>
		<polygon class="st4" points="58.6,31.1 59.1,31.4 59.5,31.1 59.1,30.9 		"/>
		<polygon class="st4" points="59.2,31.4 59.6,31.7 60.1,31.4 59.6,31.2 		"/>
		<polygon class="st4" points="59.7,31.8 60.2,32 60.6,31.8 60.2,31.5 		"/>
		<polygon class="st4" points="60.3,32.1 60.7,32.3 61.1,32.1 60.7,31.8 		"/>
		<polygon class="st4" points="60.8,32.4 61.3,32.6 61.7,32.4 61.3,32.1 		"/>
		<polygon class="st4" points="61.4,32.7 61.8,32.9 62.2,32.7 61.8,32.4 		"/>
		<polygon class="st4" points="61.9,33 62.3,33.3 62.8,33 62.3,32.8 		"/>
		<polygon class="st4" points="62.4,33.3 62.9,33.6 63.3,33.3 62.9,33.1 		"/>
		<polygon class="st4" points="63,33.6 63.4,33.9 63.9,33.6 63.4,33.4 		"/>
		<polygon class="st4" points="63.5,33.9 64,34.2 64.4,33.9 64,33.7 		"/>
		<polygon class="st4" points="64.1,34.3 65.1,34.8 65.5,34.6 64.5,34 		"/>
		<polygon class="st4" points="55.8,30.1 56.4,30.4 56.8,30.2 56.3,29.9 		"/>
		<polygon class="st4" points="57,30.8 57.5,31.1 57.9,30.8 57.5,30.6 		"/>
		<polygon class="st4" points="56.5,30.5 56.9,30.7 57.3,30.5 56.9,30.2 		"/>
		<polygon class="st4" points="57.6,31.1 61.3,33.2 61.7,33 58,30.9 		"/>
		<polygon class="st4" points="61.4,33.3 61.8,33.6 62.2,33.3 61.8,33.1 		"/>
		<polygon class="st4" points="61.9,33.6 62.3,33.9 62.8,33.6 62.3,33.4 		"/>
		<polygon class="st4" points="62.5,33.9 62.9,34.2 63.3,33.9 62.9,33.7 		"/>
		<polygon class="st4" points="63,34.3 63.4,34.5 63.9,34.3 63.4,34 		"/>
		<polygon class="st4" points="63.5,34.6 64.5,35.1 65,34.9 64,34.3 		"/>
		<polygon class="st4" points="66.2,33.6 66.7,33.9 67.1,33.6 66.7,33.4 		"/>
		<polygon class="st4" points="58.6,29.9 59.1,30.1 59.5,29.9 59.1,29.6 		"/>
		<polygon class="st4" points="59.2,30.2 59.6,30.4 60,30.2 59.6,29.9 		"/>
		<polygon class="st4" points="59.7,30.5 60.2,30.8 60.6,30.5 60.2,30.3 		"/>
		<polygon class="st4" points="60.3,30.8 60.7,31.1 61.1,30.8 60.7,30.6 		"/>
		<polygon class="st4" points="60.8,31.1 61.2,31.4 61.7,31.1 61.2,30.9 		"/>
		<polygon class="st4" points="61.4,31.4 61.8,31.7 62.2,31.4 61.8,31.2 		"/>
		<polygon class="st4" points="61.9,31.8 62.3,32 62.8,31.8 62.3,31.5 		"/>
		<polygon class="st4" points="62.4,32.1 62.9,32.3 63.3,32.1 62.9,31.8 		"/>
		<polygon class="st4" points="63,32.4 63.4,32.6 63.8,32.4 63.4,32.1 		"/>
		<polygon class="st4" points="63.5,32.7 64,32.9 64.4,32.7 64,32.4 		"/>
		<polygon class="st4" points="64.1,33 64.5,33.3 64.9,33 64.5,32.8 		"/>
		<polygon class="st4" points="64.6,33.3 65,33.6 65.5,33.3 65,33.1 		"/>
		<polygon class="st4" points="65.2,33.6 65.7,33.9 65.2,34.3 65.6,34.5 66.6,33.9 65.6,33.4 		"/>
		<polygon class="st4" points="61.9,30.4 62.3,30.7 62.7,30.4 62.3,30.2 		"/>
		<polygon class="st4" points="62.4,30.7 62.8,31 63.3,30.7 62.8,30.5 		"/>
		<polygon class="st4" points="62.9,31 63.4,31.3 63.8,31 63.4,30.8 		"/>
		<polygon class="st4" points="63.5,31.3 63.9,31.6 64.4,31.3 63.9,31.1 		"/>
		<polygon class="st4" points="64.3,31.8 64.7,32.1 65.2,31.8 64.7,31.6 		"/>
		<polygon class="st4" points="64.9,32.1 65.3,32.4 65.7,32.1 65.3,31.9 		"/>
		<polygon class="st4" points="65.4,32.4 65.8,32.7 66.3,32.4 65.8,32.2 		"/>
		<polygon class="st4" points="65.9,32.8 66.4,33 66.8,32.8 66.4,32.5 		"/>
		<polygon class="st4" points="66.5,33.1 67.3,33.5 67.7,33.3 66.9,32.8 		"/>
		<polygon class="st4" points="61.9,29.4 64.8,31 66.1,30.2 63.3,28.6 		"/>
		<polygon class="st26" points="68.6,32.2 69,32.4 69.4,32.2 69,32 		"/>
		<polygon class="st27" points="68.1,31.9 68.5,32.1 68.9,31.9 68.5,31.7 		"/>
	</g>
	<g>
		<path class="st5" d="M54.8,23.4c0,0-0.1,0-0.1,0l-0.3,0.2l0.2,0.3l0.1,0v6.3c0,0.1,0.1,0.2,0.2,0.3l9,5.2l0.1,0.3l0.3-0.2l0,0
			c0,0,0-0.1,0-0.1V29c0-0.1-0.1-0.2-0.2-0.3L54.8,23.4z"/>
		<path class="st10" d="M54.5,23.6c-0.1-0.1-0.2,0-0.2,0.1v6.6c0,0.1,0.1,0.2,0.2,0.3l9.2,5.3c0.1,0.1,0.2,0,0.2-0.1v-6.6
			c0-0.1-0.1-0.2-0.2-0.3L54.5,23.6z"/>
	</g>
</g>
</svg>
