<?xml version="1.0" encoding="UTF-8"?><svg id="Layer_1" xmlns="http://www.w3.org/2000/svg" viewBox="0 0 106.44973 82.11915"><defs><style>.cls-1{fill:#ff9d26;}.cls-2{fill:#fff;}.cls-3{fill:#e6dab0;}.cls-4{fill:#f0c6b4;}.cls-5{fill:#ff8400;}.cls-6{fill:#939598;}.cls-7{fill:#ba6000;}.cls-8{fill:#303033;}.cls-9{fill:#944f00;}.cls-10{fill:#bcbec0;}.cls-11{fill:#a7a9ac;}.cls-12{fill:#bdaf83;}.cls-13{fill:#c7a496;}.cls-14{fill:#d63a3a;}.cls-15,.cls-16{fill:#121214;}.cls-17,.cls-18{fill:#0a8074;}.cls-19,.cls-20{fill:#16a89f;}.cls-21{fill:#535359;}.cls-22{fill:#2565c4;}.cls-23{fill:#3c2415;}.cls-24{fill:#603913;}.cls-25{fill:#754c29;}.cls-26{opacity:.2;}.cls-26,.cls-27{fill:#24d2c1;}.cls-26,.cls-27,.cls-16,.cls-18,.cls-20,.cls-28{isolation:isolate;}.cls-27,.cls-16,.cls-28{opacity:.3;}.cls-18,.cls-20{opacity:.6;}</style></defs><path class="cls-16" d="M46.72019,31.8711l18.0527,10.4361c.7159-.8326,1.7598-1.6773,3.0957-2.4483,.3731-.2148,.7579-.4175,1.1485-.6074l-9.752-5.6465c-1.1367-.6538-1.1367-1.728,0-2.3872l15.4981-8.9482c1.1386-.6558,2.997-.6558,4.13281,0l26.70119,15.416c1.1367,.6577,1.1367,1.729,0,2.3847l-15.503,8.9512c-1.1357,.6568-2.9941,.6568-4.1289,0l-8.48729-4.8857c-.32711,.2256-.67871,.4477-1.05081,.6626-1.3379,.7719-2.7998,1.3755-4.2441,1.7881l17.7432,10.2304-27.2881,15.7574L19.4287,47.6265l27.2915-15.7554h-.00001Z"/><g><g><path class="cls-3" d="M70.50539,3.5645l3.1328-1.8101h0c1.497-.896,3.581-.7807,5.88281,.5469l18.67089,10.7793c4.5547,2.6279,8.2568,5.3789,8.2568,10.6338l-.0439,7.5439c0,2.4961-.84079,4.2925-2.2119,5.2012l-4.0538,2.3477-.8457-2.2305c-.3701-.1548-.7451-.3403-1.1308-.5606l-16.6621-9.623c-4.541-2.6211-8.2383-9.0244-8.2383-14.2695l-.0205-5.3477c0-.5488,.0459,.3706,.1221-.1099l-.4522,.0542s-2.4062-3.1557-2.40619-3.1557Z"/><path class="cls-12" d="M69.42239,6.7495c0-5.2563,3.7021-3.7299,8.2529-1.102l16.6972,9.6411c4.5528,2.6265,8.2549,5.3774,8.2549,10.6309l-.0449,2.6806v4.8667c0,5.2447-3.6953,7.3789-8.2392,4.7544l-16.6641-9.6191c-4.543-2.6245-8.2373-9.0249-8.2373-14.2705,0,0-.0195-7.5821-.01951-7.5821Z"/></g><path class="cls-3" d="M61.24949,29.7198l-3.6182-14.274,12.3243-7.1255c.0029-.0009,.0068-.0009,.0107-.0039l.0088-.0058v.0014c.3183-.1762,.7558-.1494,1.2363,.1285,.9785,.5659,1.7715,1.9389,1.7715,3.0683v1.0635c0,2.9888,2.1084,6.6392,4.6992,8.1372,0,0-16.4326,9.0103-16.43259,9.0103Z"/><path class="cls-3" d="M77.68209,20.7095l15.0127,8.6675s3.3604,6.2016-8.0185,14.9643c-1.61429,.6055-23.4268-14.6215-23.4268-14.6215,0,0,16.4326-9.0103,16.4326-9.0103Z"/><path class="cls-3" d="M88.09809,32.0523l11.4102-6.6094c.3252-.2197,.791-.208,1.30371,.0898,.97949,.564,1.77049,1.9356,1.77049,3.0674v4.9429c0,2.5908-.9033,4.4233-2.3613,5.2944v.0035l-.0293,.0166c-.0166,.0102-.0352,.021-.0528,.0293l-12.3115,7.1152s-7.0195-4.1143-7.4258-4.2764c0,0,7.6963-9.6733,7.69629-9.6733Z"/><path class="cls-12" d="M65.27589,35.8423l16.664,9.6231c4.5459,2.6211,8.2403,.4878,8.2403-4.7578v-4.9454c0-1.1294-.7911-2.5004-1.7696-3.0639-.9775-.5664-1.7715-.1099-1.7715,1.02v1.0601c0,2.9926-2.1064,4.2085-4.6992,2.7148l-16.664-9.6221c-2.58889-1.4961-4.6973-5.1445-4.6973-8.1382v-1.0605c0-1.1274-.793-2.5015-1.7715-3.0674-.9765-.5654-1.7685-.1064-1.7685,1.022v4.9458c0,5.2466,3.6943,11.6499,8.2373,14.2695Z"/></g><g><path d="M69.24659,40.127c-.2823,.5947-2.35259,2.1274-2.5391,2.3515-.18649,.2237-.6309,.9468-.0898,1.3013,.541,.3545,1.4257,.2427,2.3935-.2978,.96681-.542,1.5947-1.3863,1.5947-1.3863,0,0,1.2344-.4721,1.6084-.8637,.3721-.3916-.0918-1.4268-.0918-1.4268,0,0-2.5947-.2739-2.87591,.3218Z"/><path d="M72.34809,41.9532c-.2822,.5952-2.6318,2.3491-2.8193,2.5727-.1865,.2246-.3164,.6719,.2236,1.0264,.543,.3535,1.5928,.2612,2.55961-.2803,.96679-.541,1.80759-1.5112,1.80759-1.5112,0,0,.7647-.2232,1.1387-.6148,.3721-.3916,0-1.5674,0-1.5674,0,0-2.6289-.2211-2.9102,.3746Z"/><path class="cls-4" d="M72.53659,41.6343c-.22359,.4102-1.7041,1.7969-1.4101,2.0742,.8476,.7993,2.9179-1.5522,2.9179-1.5522,0,0-1.2822-.9326-1.5078-.522Z"/><path class="cls-4" d="M69.37839,39.8106c-.2246,.4101-1.7051,1.7964-1.4111,2.0732,.84571,.7998,2.9179-1.5508,2.9179-1.5508,0,0-1.2841-.9336-1.5068-.5224Z"/><path class="cls-15" d="M77.68409,21.4209c-4.6094,2.5811-7.9512,7.4082-8.7432,8.1275-.792,.7192-.7637,2.2588-.4297,2.958,.3369,.6992,.8779,5.5454,.458,7.7002,1.59481,1.7075,3.5547,.0566,3.833-.5318-.3349-5.4848-1.0175-7.7255-1.0175-7.7255,0,0,9.07031-4.2852,10.4404-6.2154,1.3721-1.9316,1.0166-3.98,1.0166-3.98,0,0-5.5576-.333-5.55759-.333Z"/><path class="cls-8" d="M77.68409,21.4209s1.1377,2.2554,1.7802,3.0059c-3.498,2.0942-6.8955,5.7217-7.6884,6.4409-.791,.7192-.7637,2.2588-.4278,2.958,.336,.7002,1.2002,6.2974,.7832,7.9204,1.59571,1.7075,3.63871-.0283,3.919-.6162-.336-5.4844-1.5117-8.1714-1.5117-8.1714,0,0,9.15041-3.9741,10.52241-5.9052,1.37109-1.9317,1.01659-3.979,1.01659-3.979l-8.3935-1.6534h.00002Z"/><path class="cls-11" d="M75.45849,13.2202s-.1817,.7535,1.10451,1.4717c1.28709,.7183,1.88379-.9609,1.88379-.9892,0-.0279-2.044-1.1846-2.044-1.1846l-.9443,.7021Z"/><path class="cls-4" d="M76.03659,12.877c-.5449,.6582-1.3721,2.185-2.0478,3.1675-.7002,.5693-1.6612,1.7085-2.4893,2.3715,.0342,.5582,1.6396,.7676,1.6396,.7676,0,0,2.085-1.2412,2.6592-1.9609,.3614-.4531,2.2364-3.0068,2.335-3.6128,.0986-.6064-1.5518-1.3897-2.0967-.7329Z"/><path class="cls-2" d="M79.99269,8.1324c-1.4229-.792-2.3086,.9082-2.3086,.9082,0,0-1.9698,3.7631-2.2256,4.1796,.4639,.0318,2.2431,.8326,2.6748,1.5459,.3701-.7534,2.3574-4.5048,2.3574-4.5048,0,0,.6719-1.4786-.49799-2.1289Z"/><path class="cls-13" d="M84.19479,7.0987c-.0469,.8667,.1641,1.9028,.1641,1.9028l.2285,1.3003-.9111,.8682-2.4209,2.2251-1.92-.5879v-2.0987l1.1231-2.477,1.31251-1.9029s2.16209,.5171,2.42379,.7701Z"/><path class="cls-10" d="M76.85589,13.7642c-.1064-1.2734,1.6358-2.5791,1.8956-3.2207l-.4249,2.5439-1.4707,.6768Z"/><path class="cls-2" d="M81.11669,8.9038s-1.4551,2.5328-.6553,3.7242c2.1104-.5772,3.22761-2.1153,3.5645-2.5074,.3369-.3916,.333-1.1191,.333-1.1191,0,0,1.248,1.4692,2.5635,2.7964,.1269,.5473-1.27639,6.0054-1.1895,7.7558,.0879,1.75,.3447,3.1333,.3447,3.1333,0,0,.3643,1.483-2.2412,1.8472-2.60939,.3643-6.2158-2.2207-6.2695-3.5415-.1778-4.3979-.9072-4.6592-.9551-6.0581-.04879-1.3994,1.4131-3.0229,1.8193-3.7134,.4082-.6904,.669-1.8838,1.1543-2.2197,.4844-.3359,1.5313-.0977,1.5313-.0977Z"/><path class="cls-10" d="M84.79249,18.9356s-.7842-.1128-.89749-.4439c-.11131-.3296,.82229-4.7973,.82229-4.7973l.0752,5.2412Z"/><g><path class="cls-11" d="M78.00149,18.4761l-.1573,.5371,.6475-.8242s-.1182-.0728-.22169,.0879c-.10251,.1606-.26851,.1992-.26851,.1992Z"/><path class="cls-5" d="M78.14989,18.2691s-.0566,.1196,.04,.1938c.0938,.0733,.1953-.0132,.1953-.0132l.8047-1.0478c.0576-.0737,.0528-.1738-.0117-.2227l-.0039-.0024c-.0635-.0493-.1602-.0283-.2187,.0454l-.8057,1.0469Z"/><path class="cls-7" d="M78.39309,18.1939c.0605,.0459,.121,.0415,.16791,.0259l-.01761,.0249s-.0791,.0571-.1738-.0181c-.0957-.0718-.0615-.1616-.0615-.1616l.0195-.0254c-.0039,.0493,.0078,.1094,.0655,.1543Z"/><path class="cls-19" d="M79.34029,16.6631c.0713-.0913,.1934-.1162,.2725-.0556l.0039,.0024c.0781,.062,.0849,.1836,.0156,.2754l-.9941,1.2944s-.0323,.0239-.07719,.0401c-.04691,.0156-.10741,.02-.16791-.0259-.0577-.0449-.0694-.105-.0655-.1543,.003-.0469,.0196-.083,.0196-.083,0,0,.9931-1.2935,.9931-1.2935Z"/><path class="cls-17" d="M79.20459,17.1421c.0732,.0572,.1523,.0474,.209,.0254l-.01859,.0259s-.09961,.0757-.21781-.0156c-.1181-.0904-.07219-.208-.07219-.208l.02049-.0249c-.0069,.061,.0039,.1377,.0791,.1972Z"/><path class="cls-19" d="M80.34129,15.3008c.084-.1094,.2295-.1391,.3262-.0654l.0029,.0019c.0937,.0728,.1045,.2217,.0195,.3311l-1.1943,1.5527s-.0322,.0293-.082,.0464c-.0567,.022-.1358,.0318-.209-.0254-.0752-.0595-.086-.1362-.0791-.1972,.0039-.0513,.02151-.0904,.02151-.0904,0,0,1.19429-1.5537,1.19429-1.5537Z"/><path class="cls-5" d="M80.40179,15.9185s.1065,.083,.03321,.1802l-.72361,.9423c-.1123,.1441-.376,.3584-.376,.3584l1.01861-1.3251s-.00491-.0665-.05081-.0386l-.0469-.0044,.0928-.1206,.04791,.0044,.00479,.0034Z"/></g><path class="cls-4" d="M78.30319,15.9702c.1484-.229,1.1201-.3955,1.4834-.1152,.5596,.4341,.8447,1.7285,.8447,1.7285l3.9698,2.0386-.0362-1.0596,.3653-.792,2.0263,.522v.4888s.10651,2.4551-.1299,2.8511c-.2402,.3974-.6923,.5737-1.749,.5229-1.0605-.0513-5.1377-3.0923-5.1377-3.0923,0,0-.8252-.0703-1.1006-.7138-.2695-.1119-.5127-.2124-.6074-.5928-.0918-.3784-.0791-1.5576,.0713-1.7862Z"/><path class="cls-4" d="M79.58539,3.3853c-.4707,1.1099-.583,1.7607-.5693,1.9214,.0137,.1611,.168,.3012,.1543,.4619-.168,1.749,.1631,3.2139,.2383,3.4004,.0742,.1865,.6435,.5849,.8945,.56,1.917-.1958,2.709-1.1958,2.957-1.438,.2481-.2416,.34481-.4799,.4161-.8852,.4189-.1533,.5185-.3071,.5185-.3071l.5195-.4204,.2159-1.4839-1.78519-2.0147s-3.35351,.1172-3.55961,.2056Z"/><path class="cls-9" d="M85.39789,1.9073s1.4883-.7632,3.0489,.6284c-1.3516-.6011-2.9532,.1811-2.9532,.1811,0,0-.0957-.8095-.0957-.8095Z"/><path class="cls-9" d="M85.05519,1.6143s1.0439-1.3076,3.0381-.6768c-1.4776,.0059-2.6202,1.3765-2.6202,1.3765,0,0-.4179-.6997-.4179-.6997Z"/><path class="cls-9" d="M84.78169,1.8814s-.4795-1.2422,1.1035-1.8814c-.7949,.7369-.3193,2.062-.3193,2.062l-.7842-.1806Z"/><path class="cls-5" d="M85.83149,2.314c0,.478-.4043,.8657-.9013,.8657-.4991,0-.9043-.3877-.9043-.8657,0-.4785,.4052-.8667,.9043-.8667,.497,0,.9013,.3882,.9013,.8667Z"/><path class="cls-9" d="M79.58539,3.3853s.3457,.7368,.89461,1.0073c.55269,.27,1.52239,.0933,1.79289,.3916,.2696,.2988,.0323,.7461,.0899,1.082,.0537,.3365,.7256,.7608,.8105,1.1485,.377-.3833,1.17971-1.3428,1.30371-1.0288,.12409,.3144-.28221,1.1128-.28221,1.1128,0,0,1.2735,.0981,1.66021-1.3023,.71869-2.603-.89551-3.6806-.89551-3.6806,0,0-1.3106-1.1329-2.8633-.7832-1.6465,.3701-2.5108,2.0527-2.5108,2.0527Z"/><path class="cls-2" d="M86.48969,11.688c-1.6191-.1596-1.7548,1.7539-1.7548,1.7539,0,0-.3038,4.2368-.3721,4.7202-.1309,.9331,3.1699,.9698,3.209,.1304,.04-.8379,.2246-4.8506,.2246-4.8506,0,0,.0244-1.623-1.3067-1.7539Z"/><g><path class="cls-2" d="M76.15379,18.9693s-2.4961-1.4336-2.9971-1.7237c-.5039-.29-.8916,.0503-.8916,.0503l3.1348,2.0889s.7539-.4155,.75391-.4155Z"/><path class="cls-6" d="M77.83059,22.3291l-2.5225-1.458-.20509-2.0278s.89749-.2056,1.33109,.439c.4355,.6445,.1777,1.8291,.4941,2.2426,.2842,.375,.9024,.8042,.9024,.8042Z"/><path class="cls-10" d="M77.83059,22.3291c-.0313-.0175-.75-.4179-.9795-.8964-.1075-.2217-.127-.524-.1465-.8448-.0254-.3799-.0528-.8105-.2324-1.1772-.3184-.6558-1.0918-.5689-1.0987-.5674l-.0068-.0562c.0078-.0014,.82031-.0918,1.1562,.5987,.1846,.3774,.211,.8135,.2373,1.1982,.0196,.315,.0401,.6138,.1407,.8242,.2226,.4624,.9492,.8672,.957,.8716,0,0-.0273,.0493-.0273,.0493Z"/><g><polygon class="cls-23" points="77.56689 22.9966 77.38909 23.1744 71.96139 17.0303 72.13819 16.8521 75.41259 18.7427 77.56689 22.9966"/><polygon class="cls-25" points="77.38909 23.1744 74.11469 21.2842 71.96139 17.0303 75.23389 18.919 77.38909 23.1744"/></g><g><polygon class="cls-6" points="74.20259 18.0738 74.06 18.2154 73.07469 17.2959 73.21829 17.1529 73.94479 17.5674 74.20259 18.0738"/><polygon class="cls-10" points="74.06 18.2154 73.33249 17.8018 73.07469 17.2959 73.80319 17.71 74.06 18.2154"/></g></g><path class="cls-4" d="M74.96039,20.2144c-.2529-.9512-1.5029-.7642-1.5029-.7642l-.4766-.4018-.4755-.9331s-1.0059,.0107-1.1475,.5229c-.2891,1.0445,.9697,2.1167,1.7725,2.3135,.8017,.1953,1.92961-.355,1.83-.7373Z"/></g><g><g><path class="cls-6" d="M61.51709,55.355c.0508-.043,.1045-.082,.16991-.1196,.57319-.3311,1.50289-.3311,2.08109,0,.0566,.0342,.1064,.0713,.1562,.1074l.2686,.0122,.0048,14.3955v.0025c.001,.2192-.1425,.4389-.4296,.6045-.5762,.3344-1.5079,.3325-2.08109,0-.30761-.1763-.44821-.4112-.42681-.6412h-.0019l-.0029-14.4043,.22161-.0273s.04009,.0703,.04009,.07029Z"/><path class="cls-10" d="M61.68309,54.7295c.5723-.3301,1.50491-.3301,2.0801,0,.5742,.3311,.5761,.8682,0,1.2002-.57519,.333-1.5078,.3306-2.0801,0-.5732-.332-.5732-.8686,0-1.2002Z"/></g><g><path class="cls-6" d="M84.23,42.2403c.05169-.0415,.10539-.0811,.16989-.1177,.5732-.332,1.5059-.332,2.08011,0,.05859,.0332,.10929,.0688,.15619,.1089l.2715,.0088,.0029,14.3979h0c.003,.2193-.14059,.4395-.43059,.606-.57421,.3325-1.50691,.3325-2.08011,0-.3057-.1763-.4463-.4116-.4268-.6431h-.0019l-.0029-14.4028,.2226-.0283s.03911,.0703,.03911,.0703Z"/><path class="cls-10" d="M84.397,41.6153c.57419-.3316,1.50679-.3316,2.07909,0,.5742,.332,.5761,.8691,0,1.2007-.5723,.331-1.5049,.331-2.07909,0-.57331-.3316-.57331-.8687,0-1.2007Z"/></g><g><path class="cls-6" d="M22.5884,32.8794c.0522-.0415,.1064-.0815,.1709-.1191,.5732-.332,1.5039-.332,2.0796,0,.059,.0342,.1103,.0718,.1552,.1094l.27,.0097,.004,14.397h0c.0029,.2202-.1373,.4395-.4292,.6074-.5738,.3311-1.5064,.3311-2.0796,0-.3081-.1767-.4478-.4116-.4292-.6445h0l-.0025-14.4028,.2227-.0284s.0381,.0713,.0381,.0713Z"/><path class="cls-10" d="M22.7549,32.2549c.5761-.3315,1.5049-.3315,2.0815,0,.5737,.3306,.5737,.8677,0,1.2002-.5766,.3311-1.5054,.3311-2.0815,0-.5713-.3325-.5713-.8691,0-1.2002Z"/></g><g><path class="cls-6" d="M45.30419,19.7642c.04881-.04,.1035-.0796,.1689-.1167,.5743-.334,1.50491-.334,2.0801,0,.0576,.0337,.1084,.0693,.1553,.1064l.27051,.0113,.00389,14.3955h0c.0029,.2226-.1396,.4419-.4297,.6094-.57319,.3315-1.5058,.3315-2.082,0-.3057-.1783-.4453-.4122-.4268-.6446h0l-.0039-14.4013,.2227-.0284s.041,.0684,.041,.0684Z"/><path class="cls-10" d="M45.47119,19.1392c.5732-.3311,1.5039-.3311,2.0791,0,.5742,.3345,.5742,.8706,0,1.2026-.5752,.3321-1.5059,.3321-2.0791-.0029-.57419-.3291-.57419-.8652,0-1.1997Z"/></g><g><polygon class="cls-26" points="62.63819 58.3907 89.92629 42.6338 46.72019 17.6866 19.4287 33.4434 62.63819 58.3907"/><polygon class="cls-18" points="46.72019 17.6875 89.92629 42.6338 89.92629 41.4761 46.72019 16.5303 46.72019 17.6875"/><polygon class="cls-20" points="19.4287 33.4434 46.72019 17.691 46.72019 16.5303 19.4287 32.2847 19.4287 33.4434"/><polygon class="cls-27" points="62.63819 57.232 89.92629 41.4761 46.72019 16.5303 19.4287 32.2847 62.63819 57.232"/><polygon class="cls-20" points="62.63819 58.3907 89.92629 42.6353 89.92629 41.4761 62.63819 57.232 62.63819 58.3907"/><polygon class="cls-18" points="19.4287 33.4439 62.63819 58.3907 62.63819 57.232 19.4287 32.2847 19.4287 33.4439"/></g></g><g><path class="cls-28" d="M2.5791,63.8272l15.5029-8.9483c1.1363-.6577,2.9966-.6577,4.1323,0l26.6993,15.4136c1.1357,.6568,1.1357,1.728,0,2.3853l-15.5,8.9492c-1.1377,.6562-2.9961,.6562-4.1304,0L2.5791,66.2134c-1.1353-.6553-1.1353-1.7285,0-2.3862Z"/><path class="cls-3" d="M8.0517,60.3872l-3.6191-14.2749,12.3257-7.123c.0019-.0024,.0083-.0044,.0107-.0078l.0069-.0044v.001c.3217-.1748,.7568-.1485,1.2382,.1289,.9781,.5669,1.7691,1.9384,1.7691,3.0678v1.064c0,2.9888,2.1108,6.6397,4.7007,8.1353,0,0-16.4322,9.0131-16.4322,9.01311Z"/><path class="cls-3" d="M12.0786,66.5093l16.6641,9.6221c4.5449,2.6221,8.2412,.4878,8.2412-4.7583v-4.9439c0-1.1279-.7901-2.5005-1.7715-3.0669-.9775-.5634-1.7695-.1064-1.7695,1.0225v1.0601c0,2.9917-2.1065,4.2085-4.7002,2.7143l-16.6641-9.6221c-2.5884-1.4946-4.6953-5.145-4.6953-8.1377v-1.0625c0-1.1269-.7949-2.5009-1.7715-3.0639-.98-.5669-1.77-.1089-1.77,1.02v4.9473c0,5.2456,3.6924,11.6499,8.2368,14.269Z"/><path class="cls-15" d="M39.688,61.3081c.99309-.2797,1.917-.8393,2.30859-.8393s.7832,.2368,.9189,.8955c.1211,.5698,.1592,1.3838-.626,1.9932-.89449,.6948-2.4004,1.4409-2.4004,1.4409,0,0-.57909,.6709-1.207,.8901-.5127,.1773-1.4316-.0981-1.5342-.3091-.1054-.2124-.3232-.9477-.3662-1.7153-.0615-1.0811,1.9131-2.0757,2.90631-2.356Z"/><path class="cls-21" d="M37.80319,52.9121c.5615,.2305,.792,2.6553,1.2695,4.7579,.44831,1.9887,.9786,3.7226,.9786,3.7226,0,0,.6611,1.3628-.8164,2.2217-1.8135,1.0522-2.6143-.1226-2.6143-.1226,0,0-1.3535-3.3589-1.7461-6.1294v-2.6572l2.9287-1.793Z"/><path class="cls-8" d="M34.87449,57.3623s1.3428-.7563,2.3779-1.707c.0284,1.3428-2.3779,1.707-2.3779,1.707Z"/><path class="cls-3" d="M24.4839,51.3741l15.0117,8.6689s3.3633,6.2017-8.0215,14.9668c-1.6103,.6035-23.4224-14.6226-23.4224-14.6226,0,0,16.4322-9.0131,16.4322-9.0131Z"/><path class="cls-3" d="M34.90279,62.7188l11.40921-6.6094c.32619-.2192,.79-.2095,1.30369,.0899,.9795,.5629,1.7695,1.9355,1.7695,3.0654v4.9438c0,2.5928-.9033,4.4234-2.3623,5.2979h0l-.0263,.0185c-.01859,.0083-.0371,.0191-.0537,.0298l-12.3135,7.1128s-7.0181-4.1147-7.4229-4.2759c0,0,7.6963-9.6728,7.6963-9.67279Z"/><g><path class="cls-4" d="M21.3799,39.0215c.0185,.7642-.377,1.5454-.377,1.5454l-.1079,1.0948,2.0845,.9653h2.0288l-.126-.6738s.1743-1.0909,.4507-1.5591c.2764-.4683,.0669-1.3726,.0669-1.3726l-2.3501-.8872s-1.3667,.5557-1.6699,.8872Z"/><path class="cls-4" d="M29.5366,41.0484s1.0274-1.5049,1.3916-1.7012c.3643-.1958,.9229-.2612,1.1045-.2612s.3242,.1963,.3242,.1963c0,0,1.1035-.2954,1.3272,.0698,.6767,1.1059-.3916,2.4868-.8252,2.7475-.4346,.2613-2.003,.7388-2.003,.7388l-.809-.7993s-.5103-.9907-.5103-.9907Z"/><path class="cls-2" d="M28.5493,41.6983s.5884-.3609,.9873-.6499c1.3379,.4057,1.4072,1.6655,1.2979,1.8535-.4659,.2803-.9878,.5781-.9878,.5781l-1.2974-1.7817Z"/><path class="cls-21" d="M25.0674,43.4009s2.2798-1.2617,3.4341-1.9731c.8413-.5606,2.4648,1.6421,1.3979,2.3696-.6401,.437-2.8892,2.4072-2.8892,2.4072,0,0-1.9428-2.8037-1.9428-2.8037Z"/><path class="cls-21" d="M17.2627,45.0103s-1.5044-2.4912,.1201-3.7969c1.6226-1.3061,2.9932-.0454,2.9932-.0454l-3.1133,3.8423Z"/><path class="cls-15" d="M33.44679,62.917s1.6543,.3374,2.07321,.3096c.418-.0278,.75389,.6006,.335,.9922,0,0-.57331,.4194-1.37111,.6152-.7178,.1758-1.8477,.3086-1.8477,.3086,0,0-1.4004,.9795-2.0166,.9795-.6167,0-1.0835-.3994-1.0967-.5928-.0913-1.3803,.5103-2.3603,.5103-2.3603,0,0,3.4136-.252,3.4136-.25201Z"/><path class="cls-21" d="M30.25239,52.1827c.31161-.502,3.419-.898,3.80961-.3917,.39259,.5054-.64261,7.1382-.41311,11.1119,.0508,.8769-3.9448,2.5473-3.8506,.2226,.0982-2.3242-.3564-7.9707,.4541-10.9428Z"/><path class="cls-21" d="M34.87449,57.3623c-.793,.462-5.3159,3.1641-8.1582,4.1709-2.8418,1.0059-6.4502-2.1084-6.8442-2.7436-.3912-.6353-.5308-1.5962-.5308-1.5962l2.4897-3.1338,6.3594,.0449s8.522-1.6401,9.6128-1.1924l-2.9287,4.4502Z"/><path class="cls-8" d="M19.6235,58.2666c-.1142-.3076,.4644-1.7578,.4644-1.7578,0,0,.9814-.2969,2.2724-.665,.9878-.2822-2.5722,3.7016,3.4746,4.7085,6.2593-1.5982,1.0665-5.9087,1.5743-6.0073,.6836-.1333,1.6455-.4419,1.644-.3179-.1118,1.9878,1.0147,2.3706,.98,3.5825-.0371,1.2119-2.05619,3.2402-4.36619,3.3765-2.5196,.1494-5.6553-2.2183-6.04351-2.91949Z"/><path class="cls-21" d="M25.5845,43.2803l2.1191,2.0264s.6499,7.9409,.6211,8.6684c.0566,1.5674,1.8477,3.0786,1.5391,4.0586-.3072,.98-2.3501,3.0786-4.6455,2.8545-.9585-.0937-2.2989-.6318-3.5235-1.2925-.1567-.0844-.3672-1.5205-.3374-2.8779-.3096,.7124-.6172,1.9038-.6308,2.3149-1.2583-.7866-2.2042-1.6162-2.1412-2.0356,.1343-.896,.503-2.3501,.2798-5.3164-.2226-2.9668-2.771-7.1367-.9511-9.5718,1.1191-1.5,2.4619-.9409,2.4619-.9409l1.0927,.9692s4.1158,1.1431,4.1158,1.14309Z"/><path class="cls-4" d="M26.1977,34.0767c1.045,.6348,1.1651,2.6128,1.1485,2.7617-.0191,.1494-.2246,.2984-.2246,.2984,0,0,.1416,2.4257-.9239,3.3212-.1616,.1353-1.5244,.0323-1.9311-1.0361-.3482-.917-.4473-3.3486-.4473-3.3486l.6724-1.9966s1.6216-.0752,1.706,0Z"/><path class="cls-24" d="M26.1977,34.0767c-.0918,.4399-1.2685,.5034-.7636,1.2866,.396,.6187,.9863,.3828,1.082,.7383,.2515,.9507,.0269,1.9678,.0269,1.9678,0,0-.3853,.4223-.5684,.3086-.1016-.0625,.0269-.6446-.2803-.4952-.5737,.2784-.727,1.566-1.5395,1.8467-.812,.2793-2.4629-.2798-2.854-.7973-.3921-.5171-1.1143-2.3013-.0572-3.9605,2.0015-3.1338,5.0943-1.5669,4.9541-.895Z"/><path class="cls-2" d="M20.9834,40.5049s.3823,1.7695,4.4302,1.4204c-.0835,.503,.1709,1.355,.1709,1.355-5.4595,.7315-5.2085-2.1123-5.2085-2.1123,0,0,.6074-.6631,.6074-.6631Z"/><path class="cls-4" d="M35.37839,47.8462s.6807-1.1191,1.0635-1.4414c.3828-.3213,1.4258-.9931,1.5537-.686,.125,.3086-.751,1.0444-.64159,1.2075,.10839,.1636,1.43849,.1084,1.43849,.1084,0,0,.9521-1.0918,1.3711-.7842,.4189,.3086-1.2871,2.4121-1.5801,2.5777-.2949,.1655-2.1846,.5854-2.1846,.5854l-.62889-.5854s-.39161-.982-.39161-.982Z"/><path class="cls-2" d="M34.46529,48.441s.6211-.4615,.8106-.7393c1.3652,.2964,1.40911,1.5156,1.3144,1.7119-.4824,.1963-.8584,.5415-.8584,.5415l-1.2666-1.5141Z"/><path class="cls-8" d="M28.8091,55.1509c-.9195-.1064-2.5347-3.02-3.7417-6.8901,1.3554,2.4121,4.165,6.0742,4.165,6.0742,0,0,4.8843-2.3154,4.9048-2.2476-.7266,1.3384-3.8809,3.2315-5.3281,3.0635Z"/><path class="cls-21" d="M25.9077,45.0664c-2.0132,.9937-.6143,3.75-.6143,3.75,0,0,2.6563,5.6646,3.4888,5.8404,2.4819,.5224,6.0357-3.2749,6.9966-4.0117,.9619-.7374,.1396-2.7989-1.2031-2.5464-1.0352,1.0341-4.2149,2.7656-4.2149,2.7656l-1.4194-3.522s-1.0181-3.27-3.0337-2.2759Z"/></g><g><path class="cls-3" d="M1.0864,43.6807l3.1319-1.8091h0c1.498-.8965,3.5815-.7832,5.8813,.5435l18.6738,10.7802c4.5513,2.6294,8.2544,5.3804,8.2544,10.6363l-.0439,7.5415c0,2.4971-.8418,4.2934-2.209,5.2007l-4.0557,2.3491-.8457-2.2305c-.3701-.1543-.7456-.3398-1.1308-.561l-16.6641-9.6221c-4.54-2.6225-8.2368-9.0234-8.2368-14.269l-.0181-5.3496c0-.5479,.0415,.3706,.1206-.107l-.4546,.0523s-2.4033-3.1553-2.4033-3.1553Z"/><path class="cls-12" d="M0,46.8648c0-5.2564,3.7041-3.73,8.2573-1.1001l16.6919,9.6387c4.5557,2.6279,8.2593,5.3769,8.2593,10.6313l-.0479,2.6816v4.8628c0,5.2481-3.6943,7.3824-8.2378,4.7559l-16.664-9.6172C3.7158,66.0948,.02,59.6934,.02,54.4483l-.02-7.5835Z"/></g></g><g><g><path class="cls-15" d="M60.92239,27.3062c-.0948-.0547-.2452-.0547-.334,0l-5.3838,3.1055v-.2344h-.3731v.5078c0,.0361,.02251,.0693,.0674,.0972l9.25,5.3408c.0947,.0527,.2442,.0527,.333,0l5.6875-3.2866c.0479-.0284,.0713-.0616,.0713-.0957v-.5157l-.4433,.2061s-8.875-5.125-8.875-5.125Z"/><path class="cls-1" d="M60.92239,26.8003c-.0948-.0551-.2452-.0551-.334,0l-5.6895,3.2818c-.0918,.0547-.0918,.1411,0,.1943l9.25,5.3403c.0947,.0542,.2442,.0542,.333,0l5.6875-3.2822c.0918-.0542,.0918-.1401,0-.1968,0,0-9.247-5.3374-9.24701-5.3374Z"/><polygon class="cls-15" points="58.59419 28.5157 59.02589 28.7647 59.46039 28.5157 59.02589 28.2657 58.59419 28.5157"/><polygon class="cls-15" points="59.41059 28.9864 59.84229 29.2354 60.27879 28.9864 59.84229 28.7354 59.41059 28.9864"/><polygon class="cls-15" points="57.97019 28.8755 58.40179 29.127 58.83929 28.8755 58.40179 28.6236 57.97019 28.8755"/><polygon class="cls-15" points="57.43309 29.1831 58.52389 29.813 58.95559 29.5606 57.86669 28.9312 57.43309 29.1831"/><polygon class="cls-15" points="56.90089 29.4922 57.98969 30.1182 58.42629 29.8726 57.33639 29.2408 56.90089 29.4922"/><polygon class="cls-15" points="56.35689 29.8047 57.44679 30.4351 57.87939 30.1836 56.79049 29.5552 56.35689 29.8047"/><polygon class="cls-15" points="59.95459 29.2984 60.38719 29.5537 60.82369 29.2984 60.38719 29.0523 59.95459 29.2984"/><polygon class="cls-15" points="60.49459 29.6162 60.93209 29.8628 61.36179 29.6162 60.93209 29.3628 60.49459 29.6162"/><polygon class="cls-15" points="61.04339 29.9317 61.478 30.1802 61.90969 29.9317 61.478 29.6763 61.04339 29.9317"/><polygon class="cls-15" points="58.62349 29.2554 59.05909 29.5039 59.48969 29.2554 59.05909 29.0054 58.62349 29.2554"/><polygon class="cls-15" points="59.16649 29.5689 59.602 29.8194 60.03559 29.5689 59.602 29.3189 59.16649 29.5689"/><polygon class="cls-15" points="59.71239 29.8819 60.146 30.1368 60.57859 29.8819 60.146 29.6304 59.71239 29.8819"/><polygon class="cls-15" points="60.25729 30.1963 60.69189 30.4478 61.12349 30.1963 60.69189 29.9488 60.25729 30.1963"/><polygon class="cls-15" points="60.80219 30.5127 61.23579 30.7618 61.66839 30.5127 61.23579 30.2618 60.80219 30.5127"/><polygon class="cls-15" points="61.34719 30.8272 61.77779 31.0757 62.21139 30.8272 61.77779 30.5767 61.34719 30.8272"/><polygon class="cls-15" points="61.88819 31.1402 62.32369 31.3911 62.75829 31.1402 62.32369 30.8911 61.88819 31.1402"/><polygon class="cls-15" points="62.43409 31.4546 62.86959 31.7056 63.30319 31.4546 62.86959 31.2046 62.43409 31.4546"/><polygon class="cls-15" points="62.96239 31.7598 63.397 32.0108 63.82959 31.7598 63.397 31.5098 62.96239 31.7598"/><polygon class="cls-15" points="63.50929 32.0733 63.94089 32.3243 64.37249 32.0733 63.94089 31.8238 63.50929 32.0733"/><polygon class="cls-15" points="64.05419 32.3882 64.48679 32.6416 64.91839 32.3882 64.48679 32.1377 64.05419 32.3882"/><polygon class="cls-15" points="64.59719 32.7046 65.02979 32.9546 65.46529 32.7046 65.02979 32.4556 64.59719 32.7046"/><polygon class="cls-15" points="65.14009 33.0166 65.57569 33.2666 66.01019 33.0166 65.57569 32.7676 65.14009 33.0166"/><polygon class="cls-15" points="65.68409 33.3321 66.12059 33.5801 66.55129 33.3321 66.12059 33.0821 65.68409 33.3321"/><polygon class="cls-15" points="58.102 30.1836 58.53559 30.4351 58.96729 30.1836 58.53559 29.9327 58.102 30.1836"/><polygon class="cls-15" points="58.645 30.4981 59.08059 30.7495 59.51119 30.4981 59.08059 30.2491 58.645 30.4981"/><polygon class="cls-15" points="59.19089 30.8135 59.62349 31.0625 60.06 30.8135 59.62349 30.564 59.19089 30.8135"/><polygon class="cls-15" points="59.73389 31.1285 60.17039 31.3794 60.60109 31.1285 60.17039 30.876 59.73389 31.1285"/><polygon class="cls-15" points="60.27979 31.4405 60.71339 31.6939 61.146 31.4405 60.71339 31.1914 60.27979 31.4405"/><polygon class="cls-15" points="60.82369 31.7569 61.26019 32.0083 61.69189 31.7569 61.26019 31.5054 60.82369 31.7569"/><polygon class="cls-15" points="61.36669 32.0684 61.80129 32.3203 62.23579 32.0684 61.80129 31.8218 61.36669 32.0684"/><polygon class="cls-15" points="61.89309 32.3755 62.33149 32.6265 62.76509 32.3755 62.33149 32.1236 61.89309 32.3755"/><polygon class="cls-15" points="62.439 32.691 62.87649 32.9395 63.31 32.691 62.87649 32.438 62.439 32.691"/><polygon class="cls-15" points="62.98579 33.0039 63.41749 33.2549 63.854 33.0039 63.41749 32.7559 62.98579 33.0039"/><polygon class="cls-15" points="63.52979 33.3169 63.96529 33.5684 64.397 33.3169 63.96529 33.0689 63.52979 33.3169"/><polygon class="cls-15" points="64.07269 33.6333 64.50829 33.8814 64.94189 33.6333 64.50829 33.3828 64.07269 33.6333"/><polygon class="cls-15" points="64.61569 33.9453 65.05029 34.2002 65.48579 33.9453 65.05029 33.6973 64.61569 33.9453"/><polygon class="cls-15" points="57.55709 30.4981 57.98969 30.7495 58.42629 30.4981 57.98969 30.2491 57.55709 30.4981"/><polygon class="cls-15" points="58.102 30.8135 58.53559 31.0625 58.96729 30.8135 58.53559 30.564 58.102 30.8135"/><polygon class="cls-15" points="58.645 31.1285 59.08059 31.3794 59.51119 31.1285 59.08059 30.876 58.645 31.1285"/><polygon class="cls-15" points="59.19089 31.4405 59.62349 31.6939 60.06 31.4405 59.62349 31.1914 59.19089 31.4405"/><polygon class="cls-15" points="59.73389 31.7569 60.17039 32.0083 60.60109 31.7569 60.17039 31.5054 59.73389 31.7569"/><polygon class="cls-15" points="60.27979 32.0684 60.71339 32.3203 61.146 32.0684 60.71339 31.8218 60.27979 32.0684"/><polygon class="cls-15" points="60.82369 32.3858 61.26019 32.6348 61.69189 32.3858 61.26019 32.1328 60.82369 32.3858"/><polygon class="cls-15" points="61.35109 32.691 61.78369 32.9395 62.22409 32.691 61.78369 32.438 61.35109 32.691"/><polygon class="cls-15" points="61.89309 33.0039 62.33149 33.2549 62.76509 33.0039 62.33149 32.7559 61.89309 33.0039"/><polygon class="cls-15" points="62.439 33.3169 62.87649 33.5684 63.31 33.3169 62.87649 33.0689 62.439 33.3169"/><polygon class="cls-15" points="62.98579 33.6333 63.41749 33.8814 63.854 33.6333 63.41749 33.3828 62.98579 33.6333"/><polygon class="cls-15" points="63.52979 33.9453 63.96529 34.2002 64.397 33.9453 63.96529 33.6973 63.52979 33.9453"/><polygon class="cls-15" points="64.07269 34.2627 65.05029 34.8262 65.48579 34.5772 64.50829 34.0093 64.07269 34.2627"/><polygon class="cls-15" points="55.81879 30.1167 56.36569 30.4307 56.80029 30.1802 56.25149 29.8628 55.81879 30.1167"/><polygon class="cls-15" points="57.019 30.8077 57.45459 31.0616 57.88819 30.8077 57.45459 30.5591 57.019 30.8077"/><polygon class="cls-15" points="56.47609 30.4956 56.90869 30.7442 57.34329 30.4956 56.90869 30.2427 56.47609 30.4956"/><polygon class="cls-15" points="57.564 31.125 61.25149 33.2486 61.68209 33.0005 57.99659 30.8711 57.564 31.125"/><polygon class="cls-15" points="61.35989 33.314 61.79339 33.566 62.227 33.314 61.79339 33.063 61.35989 33.314"/><polygon class="cls-15" points="61.90379 33.627 62.34029 33.8804 62.771 33.627 62.34029 33.3804 61.90379 33.627"/><polygon class="cls-15" points="62.45069 33.9439 62.88129 34.1953 63.31589 33.9439 62.88129 33.6944 62.45069 33.9439"/><polygon class="cls-15" points="62.99269 34.2583 63.42819 34.5064 63.86279 34.2583 63.42819 34.0064 62.99269 34.2583"/><polygon class="cls-15" points="63.53469 34.5723 64.51509 35.1353 64.95069 34.8868 63.97309 34.3203 63.53469 34.5723"/><polygon class="cls-15" points="66.23 33.647 66.66359 33.896 67.09619 33.647 66.66359 33.3965 66.23 33.647"/><polygon class="cls-15" points="58.63519 29.8755 59.07179 30.1265 59.50239 29.8755 59.07179 29.6275 58.63519 29.8755"/><polygon class="cls-15" points="59.17919 30.1905 59.61179 30.4419 60.04739 30.1905 59.61179 29.9405 59.17919 30.1905"/><polygon class="cls-15" points="59.72219 30.5035 60.15669 30.7583 60.59129 30.5035 60.15669 30.2539 59.72219 30.5035"/><polygon class="cls-15" points="60.269 30.8208 60.70259 31.0718 61.13719 30.8208 60.70259 30.5684 60.269 30.8208"/><polygon class="cls-15" points="60.811 31.1333 61.24559 31.3848 61.68019 31.1333 61.24559 30.8804 60.811 31.1333"/><polygon class="cls-15" points="61.35589 31.4488 61.79249 31.6983 62.22409 31.4488 61.79249 31.2002 61.35589 31.4488"/><polygon class="cls-15" points="61.90089 31.7632 62.33539 32.0132 62.76809 31.7632 62.33539 31.5122 61.90089 31.7632"/><polygon class="cls-15" points="62.42719 32.0684 62.86279 32.3203 63.29639 32.0684 62.86279 31.8164 62.42719 32.0684"/><polygon class="cls-15" points="62.97609 32.3833 63.40769 32.6333 63.84129 32.3833 63.40769 32.1324 62.97609 32.3833"/><polygon class="cls-15" points="63.51809 32.6983 63.95259 32.9473 64.38619 32.6983 63.95259 32.4463 63.51809 32.6983"/><polygon class="cls-15" points="64.064 33.0108 64.49749 33.2618 64.92919 33.0108 64.49749 32.7603 64.064 33.0108"/><polygon class="cls-15" points="64.60789 33.3243 65.03659 33.5767 65.477 33.3243 65.03659 33.0762 64.60789 33.3243"/><polygon class="cls-15" points="65.16059 33.6333 65.70849 33.9453 65.16059 34.2627 65.59519 34.5137 66.57369 33.9453 65.59519 33.3828 65.16059 33.6333"/><polygon class="cls-15" points="61.85889 30.3994 62.29249 30.6504 62.727 30.3994 62.29249 30.1504 61.85889 30.3994"/><polygon class="cls-15" points="62.40279 30.7144 62.83929 30.9654 63.272 30.7144 62.83929 30.4649 62.40279 30.7144"/><polygon class="cls-15" points="62.94679 31.0323 63.38039 31.2774 63.81489 31.0323 63.38039 30.7798 62.94679 31.0323"/><polygon class="cls-15" points="63.49069 31.3452 63.92719 31.5957 64.35989 31.3452 63.92719 31.0923 63.49069 31.3452"/><polygon class="cls-15" points="64.30609 31.8164 64.74359 32.0655 65.17719 31.8164 64.74359 31.5655 64.30609 31.8164"/><polygon class="cls-15" points="64.853 32.1294 65.28659 32.3809 65.72219 32.1294 65.28659 31.8809 64.853 32.1294"/><polygon class="cls-15" points="65.396 32.4429 65.83349 32.6934 66.26319 32.4429 65.83349 32.1944 65.396 32.4429"/><polygon class="cls-15" points="65.94289 32.7583 66.37739 33.0108 66.812 32.7583 66.37739 32.5088 65.94289 32.7583"/><polygon class="cls-15" points="66.49169 33.0762 67.28659 33.5337 67.72409 33.2862 66.92329 32.8228 66.49169 33.0762"/><polygon class="cls-15" points="61.93209 29.3843 64.75049 31.0088 66.07659 30.2427 63.26019 28.6138 61.93209 29.3843"/><polygon class="cls-22" points="68.605 32.1963 69.01409 32.4336 69.40479 32.2061 68.99749 31.9727 68.605 32.1963"/><polygon class="cls-14" points="68.11669 31.9156 68.52289 32.1499 68.91649 31.9253 68.50729 31.691 68.11669 31.9156"/></g><g><path class="cls-8" d="M54.78859,23.4121c-.0498-.0312-.0918-.0312-.1221-.0102l-.2832,.1641,.1855,.2622,.0528-.044v6.2871c0,.1089,.0752,.2388,.167,.2935l9.0341,5.2119,.0625,.2949,.2725-.1577h0c.03131-.0156,.0488-.0557,.0488-.106v-6.5654c0-.1113-.0732-.2373-.166-.2915l-9.2519-5.3389Z"/><path class="cls-5" d="M54.51609,23.5708c-.0977-.0581-.1709-.0092-.1709,.0943v6.5674c0,.1064,.0732,.2353,.1709,.291l9.2441,5.3379c.09381,.0556,.17,.0102,.17-.0948v-6.5664c0-.1093-.07619-.2348-.17-.2915l-9.2441-5.3379Z"/></g></g></svg>